<svg xmlns="http://www.w3.org/2000/svg" viewBox="0 0 64 64" width="64" height="64">
  <defs>
    <linearGradient id="grad" x1="0%" y1="0%" x2="100%" y2="100%">
      <stop offset="0%" style="stop-color:#6366f1;stop-opacity:1" />
      <stop offset="100%" style="stop-color:#ec4899;stop-opacity:1" />
    </linearGradient>
  </defs>
  <circle cx="32" cy="32" r="30" fill="white" stroke="url(#grad)" stroke-width="2"/>
  <path d="M32 16c-3.3 0-6 2.7-6 6v10c0 3.3 2.7 6 6 6s6-2.7 6-6V22c0-3.3-2.7-6-6-6z" fill="url(#grad)"/>
  <path d="M42 28h2c0 6.1-4.9 11-11 11s-11-4.9-11-11h2c0 5 4 9 9 9s9-4 9-9z" fill="url(#grad)"/>
  <rect x="31" y="38" width="2" height="8" fill="url(#grad)"/>
  <rect x="26" y="46" width="12" height="2" fill="url(#grad)"/>
</svg> 