<svg xmlns="http://www.w3.org/2000/svg" viewBox="0 0 512 512" width="512" height="512">
  <path d="M456.16,110.94a18,18,0,0,0-28.32-22.14l-96.6,80-40-20.4a62.11,62.11,0,0,0-81.41,29.53l-56.16,116L108,266.27A88.4,88.4,0,0,0,60.87,400.76a88.39,88.39,0,0,0,50.5,50.5,87.7,87.7,0,0,0,25.74,3.85,88.29,88.29,0,0,0,62.65-25.94l27.68-45.71,116-56.16a62.11,62.11,0,0,0,29.53-81.41l-20.4-40Zm-41.25,144.49-116,56.16a6,6,0,0,0-1.5.92l-31.95,52.71a58.39,58.39,0,0,1-68,16.92,58.39,58.39,0,0,1-33.34-33.34,58.47,58.47,0,0,1,16.92-67.95l52.71-32a6,6,0,0,0,.92-1.5l56.16-116a32.15,32.15,0,0,1,42.15-15.28l32.2,16.43-33.49,33.5a24,24,0,0,0,0,33.94l57.13,57.13a24,24,0,0,0,33.94,0L457.31,207l16.43,32.2A32.15,32.15,0,0,1,414.91,255.43ZM351,161.06l18,18-14.75,14.76-18-18Zm-33.94,0,18,18-14.75,14.76-18-18Z" fill="#4a148c"/>
</svg> 