<svg xmlns="http://www.w3.org/2000/svg" viewBox="0 0 200 100" width="200" height="100">
  <path d="M10,50 C10,30 15,20 20,20 C25,20 25,40 30,40 C35,40 35,20 40,20 C45,20 45,60 50,60 C55,60 55,40 60,40 C65,40 65,50 70,50 C75,50 75,30 80,30 C85,30 85,60 90,60 C95,60 95,40 100,40 C105,40 105,10 110,10 C115,10 115,50 120,50 C125,50 125,20 130,20 C135,20 135,70 140,70 C145,70 145,40 150,40 C155,40 155,20 160,20 C165,20 165,50 170,50 C175,50 175,70 180,70 C185,70 185,30 190,30" 
        stroke="#4a148c" 
        fill="none" 
        stroke-width="2"
        stroke-linecap="round"
        stroke-linejoin="round"
        stroke-opacity="0.8"/>
</svg> 