<svg xmlns="http://www.w3.org/2000/svg" viewBox="0 0 24 24" width="24" height="24">
  <defs>
    <linearGradient id="music-gradient" x1="0%" y1="0%" x2="100%" y2="100%">
      <stop offset="0%" stop-color="#ffffff" />
      <stop offset="100%" stop-color="#f0f0ff" />
    </linearGradient>
  </defs>
  <circle cx="12" cy="12" r="11" fill="url(#music-gradient)" stroke="#ffffff" stroke-width="1" />
  <path d="M17,3c0,0-1.5,1-6.5,1C8,4,7,6,7,8s1,4,3.5,4S14,11,14,10s-1-2-2.5-2S9,9,9,10s1,2,2.5,2c0.5,0,1-0.2,1.5-0.3V15 c0,1.7-1.3,3-3,3s-3-1.3-3-3s1.3-3,3-3c0.4,0,0.8,0.1,1.2,0.3c0-0.2-0.1-0.5-0.1-0.7V3.5C11.1,3.5,11.4,3.5,11.5,3.5 c1.1,0,2.2-0.2,3.2-0.4l0.8-0.2V15c0,1.7-1.3,3-3,3s-3-1.3-3-3s1.3-3,3-3c0.4,0,0.8,0.1,1.2,0.3c0-0.2-0.1-0.5-0.1-0.7V3.3l0.2,0 C14.7,3.1,15.5,2.9,16,2.7L17,3z" fill="#FFFFFF"/>
</svg> 