<svg xmlns="http://www.w3.org/2000/svg" viewBox="0 0 512 512" width="512" height="512">
  <path d="M502.6,235.6c-1.1-2.4-3.9-3.4-6.3-2.3c-0.8,0.4-1.7,0.9-2.6,1.5c-4.8-8.8-13.2-15.5-23.3-18.3v-6.9c0-8.5-6.9-15.4-15.4-15.4h-13c-8.5,0-15.4,6.9-15.4,15.4v0.4h-66v-0.4c0-8.5-6.9-15.4-15.4-15.4h-13c-8.5,0-15.4,6.9-15.4,15.4v6.9c-10.1,2.8-18.5,9.5-23.3,18.3c-0.9-0.5-1.8-1-2.6-1.5c-2.4-1.1-5.3-0.1-6.3,2.3c-1.1,2.4-0.1,5.3,2.3,6.3c2.2,1,5.3,2.9,8.6,5.7c0.2,2.7,0.8,5.3,1.6,7.9c1.6,5.3,4.4,10.2,8,14.2c1.6,1.8,3.5,3.5,5.4,5.1l0,0c15.1,12.4,39.1,12.4,54.2,0l0,0c2-1.6,3.8-3.3,5.4-5.1c3.6-4,6.3-8.9,8-14.2c0.8-2.6,1.3-5.2,1.6-7.9c3.3-2.7,6.4-4.7,8.6-5.7C502.7,240.8,503.7,238,502.6,235.6z M456,214.9c2.8,0,5.1,2.3,5.1,5.1v5.9C456.8,225.3,451.9,225,447,225c-4.9,0-9.8,0.3-15.1,0.9v-5.9c0-2.8,2.3-5.1,5.1-5.1H456z M475.5,209.8v15.2c-1.3,0-2.6,0.1-3.8,0.1V225c0-19.3-15.7-34.9-34.9-34.9H217.4c-19.3,0-34.9,15.7-34.9,34.9v0.1c-1.3,0-2.6-0.1-3.8-0.1v-15.2c0-3.8,1.5-7.3,3.9-9.8c2-2,4.5-3.4,7.3-4c0.6-0.1,1.2-0.2,1.8-0.3c0.8-0.1,1.5-0.1,2.3-0.1h273c0.8,0,1.6,0,2.3,0.1c0.6,0.1,1.2,0.2,1.8,0.3c2.8,0.6,5.3,2,7.3,4C474,202.5,475.5,206,475.5,209.8z M368.1,214.9c2.8,0,5.1,2.3,5.1,5.1v5.9c-5.3-0.6-10.2-0.9-15.1-0.9c-4.9,0-9.8,0.3-15.1,0.9v-5.9c0-2.8,2.3-5.1,5.1-5.1H368.1z M460.3,264.9c-3.9,4.3-9.5,7.1-15.7,7.1c-5.9,0-11.4-2.4-15.2-6.5c-0.2-0.2-0.4-0.4-0.6-0.6c-3.9-4.3-5.9-9.9-5.9-15.7c0-0.3,0-0.6,0-0.9c0.2-5.5,2.4-10.6,6.1-14.5c0.2-0.2,0.4-0.4,0.6-0.6c3.8-4,9.3-6.5,15.1-6.5c5.9,0,11.3,2.4,15.2,6.4c0.2,0.2,0.4,0.4,0.6,0.6c3.8,4,6,9.3,6.1,15c0,0.2,0,0.3,0,0.5C466.7,254.8,464.4,260.4,460.3,264.9z M372.4,264.9c-3.9,4.3-9.5,7.1-15.7,7.1c-5.9,0-11.4-2.4-15.2-6.5c-0.2-0.2-0.4-0.4-0.6-0.6c-3.9-4.3-5.9-9.9-5.9-15.7c0-0.3,0-0.6,0-0.9c0.2-5.5,2.4-10.6,6.1-14.5c0.2-0.2,0.4-0.4,0.6-0.6c3.8-4,9.3-6.5,15.1-6.5c5.9,0,11.3,2.4,15.2,6.4c0.2,0.2,0.4,0.4,0.6,0.6c3.8,4,6,9.3,6.1,15c0,0.2,0,0.3,0,0.5C378.8,254.8,376.5,260.4,372.4,264.9z" fill="#ff6d00"/>
  <path d="M41.4,308.3c-2.3-11.6-3.5-23.5-3.5-35.6s1.2-24,3.5-35.6l153.8-31.4c2.4-0.5,4.1-2.6,4.1-5.1v-27.1c0-3-2.4-5.4-5.4-5.4H9.4c-5.2,0-9.4,4.2-9.4,9.4v124.4c0,5.2,4.2,9.4,9.4,9.4h184.5c3,0,5.4-2.4,5.4-5.4v-27.1c0-2.5-1.7-4.6-4.1-5.1L41.4,308.3z" fill="#ff6d00"/>
</svg> 